<?xml version="1.0" standalone="no"?><!DOCTYPE svg PUBLIC "-//W3C//DTD SVG 1.1//EN" "http://www.w3.org/Graphics/SVG/1.1/DTD/svg11.dtd"><svg t="1579059954192" class="icon" viewBox="0 0 1024 1024" version="1.1" xmlns="http://www.w3.org/2000/svg" p-id="3693" xmlns:xlink="http://www.w3.org/1999/xlink" width="150" height="150"><defs><style type="text/css"></style></defs><path d="M597.333333 1024L0 884.053333V139.946667L597.333333 0z m-177.066666-341.333333l89.173333-384-76.8 3.84L387.413333 554.666667c0 6.826667-2.56 13.653333-3.413333 20.48A170.666667 170.666667 0 0 0 384 597.333333c0-6.826667 0-13.226667-2.133333-20.053333s0-13.653333-2.986667-20.48L325.546667 309.76l-73.386667 4.266667-52.48 236.8a170.666667 170.666667 0 0 0-3.84 20.48 165.12 165.12 0 0 0 0 20.48v-20.053334c0-6.826667 0-13.653333-2.986667-20.053333L149.76 320 85.333333 324.266667l71.253334 341.333333 73.813333 4.266667 49.92-229.546667v-4.693333a26.453333 26.453333 0 0 0 0-4.266667v-15.786667-15.786666a165.12 165.12 0 0 0 0 20.48c0 6.826667 0 13.226667 3.413333 20.053333L341.333333 677.973333zM597.333333 85.333333v85.333334h341.333334v682.666666h-341.333334v85.333334h426.666667V85.333333H597.333333z" fill="#2B579A" p-id="3694"></path><path d="M597.333333 256h256v42.666667h-256zM597.333333 341.333333h256v42.666667h-256zM597.333333 426.666667h256v42.666666h-256zM597.333333 512h256v42.666667h-256zM597.333333 597.333333h256v42.666667h-256zM597.333333 682.666667h256v42.666666h-256z" fill="#2B579A" p-id="3695"></path></svg>