<?xml version="1.0" standalone="no"?><!DOCTYPE svg PUBLIC "-//W3C//DTD SVG 1.1//EN" "http://www.w3.org/Graphics/SVG/1.1/DTD/svg11.dtd"><svg t="1579063936565" class="icon" viewBox="0 0 1024 1024" version="1.1" xmlns="http://www.w3.org/2000/svg" p-id="2604" xmlns:xlink="http://www.w3.org/1999/xlink" width="150" height="150"><defs><style type="text/css"></style></defs><path d="M721.6 29.6L944 232h-188.8c-36.8 0-67.2-28.8-67.2-64V0H157.6C120.8 0 80 28.8 80 64v896c0 35.2 40.8 64 77.6 64h707.2c36.8 0 71.2-28.8 79.2-64V232L721.6 29.6z" fill="#888997" p-id="2605" data-spm-anchor-id="a313x.7781069.0.i1" class="selected"></path><path d="M755.424 224H944L720.896 28.576 688 0v162.208C688 196.192 718.496 224 755.424 224z" fill="#CFD0D9" p-id="2606"></path><path d="M518.336 380.672c36.864 0 66.816 9.792 89.856 30.528 23.04 20.16 34.56 47.808 34.56 82.368 0 28.224-7.488 51.84-21.888 70.272-5.184 6.336-21.312 21.312-48.384 44.928a95.68 95.68 0 0 0-24.192 29.952c-6.336 11.52-9.216 24.192-9.216 38.016v9.792H477.44v-9.792c0-21.312 3.456-39.744 11.52-54.72 7.488-16.128 29.376-39.744 65.088-71.424l9.792-10.944c10.368-13.248 16.128-27.072 16.128-42.048 0-20.16-5.76-35.712-16.704-47.232-11.52-11.52-28.224-17.28-48.96-17.28-25.92 0-44.928 8.064-56.448 24.768-10.368 13.824-15.552 33.408-15.552 58.752h-60.48c0-42.048 12.096-74.88 36.288-99.072 24.192-24.768 57.6-36.864 100.224-36.864z m-10.368 336.96c12.096 0 22.464 3.456 30.528 11.52 8.064 7.488 12.096 17.28 12.096 29.376s-4.608 21.888-12.672 29.952c-8.064 7.488-18.432 11.52-29.952 11.52a41.28 41.28 0 0 1-29.952-12.096 40 40 0 0 1-12.096-29.376c0-12.096 4.032-21.888 12.096-29.376 8.064-8.064 18.432-11.52 29.952-11.52z" fill="#FFFFFF" p-id="2607"></path></svg>