<?xml version="1.0" standalone="no"?><!DOCTYPE svg PUBLIC "-//W3C//DTD SVG 1.1//EN" "http://www.w3.org/Graphics/SVG/1.1/DTD/svg11.dtd"><svg t="1579059909646" class="icon" viewBox="0 0 1024 1024" version="1.1" xmlns="http://www.w3.org/2000/svg" p-id="3529" xmlns:xlink="http://www.w3.org/1999/xlink" width="150" height="150"><defs><style type="text/css"></style></defs><path d="M597.333333 85.333333v85.333334h341.333334v682.666666h-341.333334v85.333334h426.666667V85.333333H597.333333zM597.333333 136.106667V0L0 139.946667v738.56L597.333333 1024v-146.773333z m-170.666666 349.013333a136.533333 136.533333 0 0 1-29.866667 46.08 132.693333 132.693333 0 0 1-45.226667 29.866667 164.266667 164.266667 0 0 1-58.88 10.24H247.466667v145.92L170.666667 710.826667V300.8l70.826666-4.693333c23.893333 0 47.36-2.56 70.826667-2.56a120.32 120.32 0 0 1 95.573333 34.986666 143.36 143.36 0 0 1 30.72 98.133334 164.266667 164.266667 0 0 1-11.946666 58.453333z" fill="#B7472A" p-id="3530"></path><path d="M352 431.36a73.386667 73.386667 0 0 1-16.213333 50.773333 66.133333 66.133333 0 0 1-49.92 17.066667h-32.426667v-128l18.773333-2.56a90.453333 90.453333 0 0 1 18.773334 0A59.306667 59.306667 0 0 1 337.493333 384a67.84 67.84 0 0 1 14.506667 46.933333" fill="#B7472A" p-id="3531"></path><path d="M682.666667 298.666667a128 128 0 1 0 128 128h-128z" fill="#B7472A" p-id="3532"></path><path d="M725.333333 256v128h128a128 128 0 0 0-128-128zM597.333333 597.333333h256v42.666667h-256zM597.333333 682.666667h256v42.666666h-256z" fill="#B7472A" p-id="3533"></path></svg>