<?xml version="1.0" standalone="no"?><!DOCTYPE svg PUBLIC "-//W3C//DTD SVG 1.1//EN" "http://www.w3.org/Graphics/SVG/1.1/DTD/svg11.dtd"><svg t="1579060496414" class="icon" viewBox="0 0 1024 1024" version="1.1" xmlns="http://www.w3.org/2000/svg" p-id="11779" id="mx_n_1579060496415" xmlns:xlink="http://www.w3.org/1999/xlink" width="150" height="150"><defs><style type="text/css"></style></defs><path d="M935.936 222.629647v746.074353A56.621176 56.621176 0 0 1 880.399059 1024H143.600941a56.621176 56.621176 0 0 1-55.536941-55.536941V55.657412A56.500706 56.500706 0 0 1 143.600941 0h569.825883" fill="#6075F4" p-id="11780"></path><path d="M935.936 222.388706H740.171294a29.635765 29.635765 0 0 1-26.74447-31.081412V0z m0 0" fill="#90A4F4" p-id="11781"></path><path d="M651.745882 601.630118c42.646588-25.660235 42.646588-60.235294 0-85.413647L412.852706 375.506824c-38.430118-21.323294-72.282353-4.336941-72.282353 42.646588v273.106823c0 46.863059 34.213647 63.969882 72.282353 42.646589z m0 0" fill="#FFFFFF" p-id="11782"></path></svg>