<?xml version="1.0" standalone="no"?><!DOCTYPE svg PUBLIC "-//W3C//DTD SVG 1.1//EN" "http://www.w3.org/Graphics/SVG/1.1/DTD/svg11.dtd"><svg t="1579060597328" class="icon" viewBox="0 0 1024 1024" version="1.1" xmlns="http://www.w3.org/2000/svg" p-id="1020" xmlns:xlink="http://www.w3.org/1999/xlink" width="150" height="150"><defs><style type="text/css"></style></defs><path d="M955.725244 204.783821v750.900976a68.476992 68.476992 0 0 1-68.274756 68.274756H136.549512A68.436545 68.436545 0 0 1 68.274756 955.725244V68.274756A68.476992 68.476992 0 0 1 136.549512 0h614.391911l204.783821 204.783821z" fill="#58AD68" p-id="1021"></path><path d="M955.725244 204.783821h-136.509065a68.274756 68.274756 0 0 1-68.274756-68.274756V0l204.783821 204.783821z" fill="#BCDEC3" p-id="1022"></path><path d="M521.929771 576.897421A154.710274 154.710274 0 0 0 446.859897 558.170399c-75.433898 0-136.509065 50.194889-136.509066 112.402576 0 61.843662 61.115614 112.402575 136.509066 112.402575s136.509065-50.59936 136.509065-112.402575V343.436584c11.244302 5.258127 50.842043 23.216653 106.13327-9.747758 19.45507-11.244302 10.920725-22.852629-0.323577-22.852629-71.348738 0-120.127977-31.467867-146.418612-47.606272-13.630683-8.615239-20.830272-5.986175-20.830272 6.350199v307.317297z" fill="#FFFFFF" p-id="1023"></path></svg>