<?xml version="1.0" standalone="no"?><!DOCTYPE svg PUBLIC "-//W3C//DTD SVG 1.1//EN" "http://www.w3.org/Graphics/SVG/1.1/DTD/svg11.dtd"><svg t="1579063203062" class="icon" viewBox="0 0 1024 1024" version="1.1" xmlns="http://www.w3.org/2000/svg" p-id="4892" xmlns:xlink="http://www.w3.org/1999/xlink" width="150" height="150"><defs><style type="text/css"></style></defs><path d="M815.36 1018.88H207.1552c-75.6224 0-134.8096-52.6848-134.8096-119.9104V128.512C72.3456 60.5696 132.8128 5.12 207.1552 5.12h464.64l278.3744 253.2864v640.768c0 67.2256-59.2896 119.7056-134.8096 119.7056zM207.1552 54.4256c-47.2576 0-85.7088 33.2288-85.7088 74.0352v770.7136c0 39.68 37.632 70.7584 85.7088 70.7584h608.2048c48.0256 0 85.7088-31.0784 85.7088-70.7584V280.32L652.8 54.4256z" p-id="4893" fill="#3DA8F6"></path><path d="M725.8112 629.2992a24.576 24.576 0 0 1-24.576 24.576H321.28a24.576 24.576 0 0 1 0-49.152H701.44a24.576 24.576 0 0 1 24.576 24.576M725.8112 449.1264a24.576 24.576 0 0 1-24.576 24.576H321.28a24.576 24.576 0 1 1 0-49.152H701.44a24.576 24.576 0 0 1 24.576 24.576M725.8112 812.6976a24.576 24.576 0 0 1-24.576 24.576H321.28a24.576 24.576 0 0 1 0-49.152H701.44a24.576 24.576 0 0 1 24.576 24.576M739.4304 277.1968h182.8864a24.576 24.576 0 1 1 0 49.152h-182.8864" p-id="4894" fill="#3DA8F6"></path><path d="M739.4304 326.2976a116.9408 116.9408 0 0 1-116.7872-116.7872V46.08a24.576 24.576 0 1 1 49.152 0v163.4304a67.7376 67.7376 0 0 0 67.6864 67.6864" p-id="4895" fill="#3DA8F6"></path></svg>